<?xml version="1.0" encoding="UTF-8" standalone="no"?>

<svg width="100%" height="100%" viewBox="0 0 400 400" version="1.1" xmlns="http://www.w3.org/2000/svg" xmlns:xlink="http://www.w3.org/1999/xlink" xml:space="preserve" xmlns:serif="http://www.serif.com/" style="fill-rule:evenodd;clip-rule:evenodd;stroke-linejoin:round;stroke-miterlimit:2;">
    <g id="Artboard1" transform="matrix(0.915332,0,0,0.915332,-443.020595,-105.263158)">
        <rect x="484" y="115" width="437" height="437" style="fill:none;"></rect>
        <g transform="matrix(1.0925,0,0,1.0925,-66.62,-30.84875)">
            <path d="M737.2,239.67L762.33,244.85C762.988,244.984 763.509,245.49 763.66,246.14C765.247,252.76 766.93,258.873 768.71,264.48C769.53,267.06 769.88,270.6 770.01,272.74C770.25,276.71 767.71,275.7 765.65,276.89C764.243,277.71 763.197,278.38 762.51,278.9C762.416,278.974 762.361,279.087 762.361,279.206C762.361,279.367 762.46,279.512 762.61,279.57L782.93,287.12C782.017,287.307 781.09,287.377 780.15,287.33C778.717,287.257 777.787,287.24 777.36,287.28C772.36,287.69 767.86,287.81 762.92,288.47C751.587,289.983 742.24,291.323 734.88,292.49C734.509,292.55 734.134,292.546 733.77,292.48C723.083,290.62 715.797,289.197 711.91,288.21C707.023,286.97 699.76,285.443 690.12,283.63C680.333,281.79 670.293,279.48 660,276.7C658.72,276.36 656.98,276.407 654.78,276.84L649.75,276.06L658.57,274.94C658.61,274.935 658.64,274.9 658.64,274.86L658.64,274.61C658.64,274.438 658.506,274.295 658.34,274.29C655.553,274.19 652.953,273.72 650.54,272.88C647.96,271.97 646.95,269.07 646.45,266.58C646.05,264.65 644.43,263.44 644.35,261.37C644.617,261.357 644.853,261.163 645.06,260.79C645.217,260.509 645.574,260.402 645.86,260.55C646.59,260.93 647.08,261.71 647.82,262.11C649.213,262.87 650.723,263.557 652.35,264.17C658.87,266.617 665.39,268.72 671.91,270.48C672.081,270.525 672.19,270.691 672.16,270.86L672.1,271.15C672.08,271.256 671.977,271.328 671.87,271.31L659.47,268.89C659.351,268.868 659.232,268.936 659.19,269.05C659.19,269.05 659.09,269.331 659.089,269.332C659.011,269.554 659.125,269.8 659.342,269.877C659.345,269.878 659.347,269.879 659.35,269.88C666.443,272.14 672.563,274.02 677.71,275.52C682.88,277.02 688.94,277.77 693.05,278.67C694.39,278.963 695.007,278.1 694.9,276.08C694.9,276.071 694.899,276.061 694.899,276.052C694.899,275.635 695.243,275.292 695.659,275.292C695.844,275.292 696.021,275.359 696.16,275.48C699.173,278.173 702.703,280.597 706.75,282.75C707.212,282.994 707.715,283.147 708.23,283.2L733.96,285.62C734.254,285.642 734.521,285.444 734.58,285.16C734.873,283.787 734.69,282.863 734.03,282.39C733.857,277.443 733.493,272.8 732.94,268.46C732.35,263.83 735.34,261.86 739.26,259.69C742.987,257.617 746.38,258.167 749.44,261.34C749.474,261.375 749.521,261.396 749.57,261.396C749.619,261.396 749.666,261.375 749.7,261.34L749.9,261.15C750.024,261.018 750.033,260.815 749.92,260.68C748.32,258.707 746.437,257.057 744.27,255.73C744.077,255.223 743.777,254.833 743.37,254.56C743.194,254.443 743.088,254.246 743.088,254.035C743.088,253.689 743.372,253.405 743.718,253.405C743.745,253.405 743.773,253.406 743.8,253.41C750.453,254.197 755.997,252.2 760.43,247.42C760.485,247.356 760.516,247.275 760.516,247.19C760.516,246.998 760.358,246.84 760.166,246.84C760.126,246.84 760.087,246.847 760.05,246.86C758.523,247.427 757.047,247.843 755.62,248.11C747.3,249.65 738.493,251.247 729.2,252.9C725.31,253.59 721.33,254.02 716.93,253.68C700.49,252.393 689.637,251.46 684.37,250.88C683.077,250.74 681.547,250.11 679.78,248.99C681.693,248.857 683.62,248.963 685.56,249.31C685.999,249.39 686.441,249.423 686.88,249.41C699.233,249.103 709.44,248.99 717.5,249.07C725.55,249.15 734.09,250.04 736.12,240.21C736.207,239.777 736.567,239.597 737.2,239.67Z" style="fill:rgb(52,64,63);fill-rule:nonzero;"></path>
            <path d="M715.7,259.28L716.29,259.66C714.357,262.58 711.943,265.107 709.05,267.24C708.923,267.227 708.817,267.207 708.73,267.18C708.593,267.129 708.502,266.998 708.502,266.852C708.502,266.767 708.533,266.684 708.59,266.62L714.54,260.06L715.7,259.28Z" style="fill:rgb(52,64,63);fill-rule:nonzero;"></path>
            <path d="M654.63,293.47C651.603,293.977 649.26,295.61 647.6,298.37C645.987,301.057 644.45,303.777 642.99,306.53C642.79,306.95 642.573,307.253 642.34,307.44C642.267,307.493 642.19,307.533 642.11,307.56C642.083,307.567 642.055,307.571 642.027,307.571C641.857,307.571 641.717,307.431 641.717,307.261C641.717,307.247 641.718,307.234 641.72,307.22L643.65,293.02C643.89,292.927 644.003,292.817 643.99,292.69C646.93,292.363 649.897,292.13 652.89,291.99C653.99,291.943 655.117,291.46 656.27,290.54C657.003,289.96 657.82,289.773 658.72,289.98C658.891,290.016 659.014,290.168 659.014,290.342C659.014,290.498 658.916,290.637 658.77,290.69C657.263,291.303 655.883,292.23 654.63,293.47Z" style="fill:rgb(52,64,63);fill-rule:nonzero;"></path>
            <path d="M790.92,292.33C793.8,300.697 793.9,309.92 791.22,320C790.74,321.807 790.25,322.963 789.75,323.47C789.27,323.95 787.62,324.55 784.8,325.27C783.627,325.577 778.603,326.457 769.73,327.91C769.457,327.95 769.19,328.127 768.93,328.44C768.904,328.47 768.882,328.504 768.864,328.541C768.759,328.764 768.861,329.036 769.089,329.144C769.124,329.16 769.162,329.173 769.2,329.18C772.487,329.78 776.15,330.473 780.19,331.26C782.377,331.687 784.893,332.297 787.74,333.09C790.22,333.777 792.733,334.417 795.28,335.01C795.147,335.697 794.563,336.077 793.53,336.15C758.397,338.65 724.873,341.767 692.96,345.5C692.473,345.553 690.333,345.62 686.54,345.7C683.84,345.753 681.387,346.35 679.18,347.49L674.51,355.69C674.437,355.737 674.357,355.77 674.27,355.79C674.251,355.794 674.231,355.796 674.212,355.797C674.003,355.805 673.825,355.645 673.817,355.442C673.816,355.422 673.817,355.401 673.82,355.38C674.06,353.33 675.13,350.83 674.24,348.9C674.967,348.733 675.21,348.23 674.97,347.39C675.51,346.103 675.377,345.353 674.57,345.14C672.44,344.59 669.29,344.28 666.8,343.61C656.673,340.89 646.067,338.233 634.98,335.64C634.333,335.487 632.907,335.25 630.7,334.93C629.313,334.73 627.907,334.41 626.48,333.97L638.5,330.51L664.08,337.35C664.463,337.454 664.877,337.321 665.14,337.01L667.48,334.21C670.027,330.857 671.677,327.083 672.43,322.89L676.98,334.37C677.148,334.807 677.578,335.092 678.05,335.08L698.79,334.49C698.975,334.483 699.158,334.443 699.33,334.37C705.26,331.95 710.02,330.73 721.08,327.21C724.527,326.11 727.03,324.897 728.59,323.57C731.463,321.117 733.737,318.56 735.41,315.9C735.487,315.768 735.629,315.687 735.781,315.687C736.017,315.687 736.211,315.881 736.211,316.117C736.211,316.128 736.211,316.139 736.21,316.15C735.937,321.437 736.233,326.24 737.1,330.56C737.115,330.627 737.151,330.688 737.201,330.735C737.337,330.862 737.551,330.858 737.675,330.726C737.722,330.675 737.752,330.61 737.76,330.54L741.09,304.94C741.246,303.736 742.016,302.697 743.12,302.2L758.6,295.19L768.25,294.04L790.92,292.33Z" style="fill:rgb(52,64,63);fill-rule:nonzero;"></path>
            <path d="M635.26,317.83C634.06,320.223 633.193,321.663 632.66,322.15C631.307,323.383 630.06,324.787 628.92,326.36L625.74,325.47C626.28,323.197 627.38,321.587 629.04,320.64C630.507,319.807 631.493,319.2 632,318.82C633.267,317.873 634.353,317.543 635.26,317.83Z" style="fill:rgb(52,64,63);fill-rule:nonzero;"></path>
            <path d="M801.24,336.39C802.927,336.783 804.15,338.01 804.91,340.07C806.65,344.75 810.63,353.64 812.47,360.61C813.037,362.743 813.97,365.283 815.27,368.23C815.546,368.852 815.571,369.558 815.34,370.2C814.38,372.807 812.503,374.577 809.71,375.51C806.03,376.737 802.313,378.05 798.56,379.45C798.442,379.5 798.365,379.616 798.365,379.745C798.365,379.9 798.477,380.034 798.63,380.06C801.39,380.41 803.21,382.11 805.9,382.79C811,384.083 816.217,385.6 821.55,387.34C820.157,387.733 818.767,387.983 817.38,388.09C814.953,388.27 813.54,388.393 813.14,388.46C799.6,390.54 788.36,391.59 775.92,393.45C772.113,394.023 767.18,394.543 761.12,395.01C758.19,395.24 754.62,394.72 752.63,394.5C749.737,394.173 747.61,393.9 746.25,393.68C728.303,390.78 710.633,388.007 693.24,385.36C673.94,382.43 649.39,379.5 627.76,376.77C625.547,376.49 622.953,376.707 619.98,377.42C618.32,377.813 616.637,377.76 614.93,377.26L633.84,373.93C633.976,373.899 634.073,373.777 634.073,373.638C634.073,373.487 633.959,373.359 633.81,373.34C627.263,372.84 620.85,371.87 614.57,370.43C614.024,370.308 613.545,369.986 613.23,369.53C610.663,365.83 608.55,361.83 606.89,357.53C607.09,357.223 607.32,357.08 607.58,357.1C607.78,357.12 607.98,357.3 608.18,357.64C608.4,358.013 608.677,358.243 609.01,358.33C617.66,360.57 630.4,364.02 641.81,365.77C645.31,366.31 648.663,366.93 651.87,367.63L651.88,367.63C651.813,367.637 651.033,367.727 649.54,367.9C649.321,367.92 649.103,367.917 648.89,367.89C641.603,367.01 634.1,366.6 626.38,366.66C626.317,366.659 626.255,366.679 626.206,366.717C626.085,366.811 626.065,366.992 626.162,367.118C626.2,367.166 626.252,367.202 626.31,367.22C630.557,368.38 637.25,370.027 646.39,372.16C653.09,373.727 659.023,374.793 664.19,375.36C673.383,376.36 679.387,376.91 682.2,377.01C682.256,377.011 682.312,377.006 682.366,376.995C682.747,376.914 682.996,376.539 682.917,376.163C682.905,376.107 682.886,376.052 682.86,376L679.76,369.62C679.726,369.551 679.709,369.475 679.709,369.398C679.709,369.118 679.939,368.888 680.219,368.888C680.256,368.888 680.294,368.892 680.33,368.9C681.077,369.053 681.93,369.467 682.89,370.14C689.543,374.76 696.57,378.387 703.97,381.02C705.27,381.48 706.617,381.807 708.01,382C722.697,384 738.75,386.123 756.17,388.37C756.581,388.418 756.959,388.125 757.01,387.72C757.217,385.967 756.93,384.36 756.15,382.9L754.94,360.9C754.92,360.565 754.982,360.229 755.12,359.92C756.06,357.76 758.21,356.78 760.54,356.32C764.23,355.6 768.02,353.97 771.1,352.97C771.561,352.825 772.049,352.784 772.53,352.85C776.523,353.443 779.977,355.043 782.89,357.65C783.017,357.765 783.217,357.756 783.34,357.63L783.38,357.59C783.506,357.456 783.506,357.244 783.38,357.11C780.327,353.89 776.877,351.173 773.03,348.96L769.94,345.31C769.876,345.234 769.841,345.139 769.841,345.04C769.841,344.809 770.031,344.62 770.261,344.62C770.268,344.62 770.274,344.62 770.28,344.62C774.587,344.847 778.837,345.54 783.03,346.7C784.043,346.987 785.367,346.75 787,345.99C792.18,343.597 797.353,341.42 802.52,339.46C802.723,339.388 802.86,339.195 802.86,338.979C802.86,338.775 802.738,338.59 802.55,338.51C800.497,337.61 800.06,336.903 801.24,336.39Z" style="fill:rgb(52,64,63);fill-rule:nonzero;"></path>
            <path d="M714.74,364.47L713.38,365.12C713.341,365.136 713.3,365.144 713.258,365.144C713.082,365.144 712.938,365 712.938,364.824C712.938,364.745 712.967,364.669 713.02,364.61L720.99,356.64C721.1,356.53 721.139,356.367 721.09,356.22C720.977,355.887 721.083,355.527 721.41,355.14C721.459,355.085 721.487,355.014 721.487,354.94C721.487,354.775 721.351,354.64 721.187,354.64C721.181,354.64 721.176,354.64 721.17,354.64L720.06,354.68C721.2,354.687 722.337,354.333 723.47,353.62C723.493,353.604 723.52,353.593 723.548,353.59C723.651,353.575 723.749,353.653 723.764,353.761C723.768,353.788 723.766,353.814 723.76,353.84C723.48,354.813 723.063,355.623 722.51,356.27C720.503,358.61 717.913,361.343 714.74,364.47Z" style="fill:rgb(52,64,63);fill-rule:nonzero;"></path>
            <path d="M638.27,395.71C635.77,395.777 633.327,396.243 630.94,397.11C630.45,397.286 630.02,397.599 629.7,398.01C628.22,399.9 626.74,401.16 625.22,403.44C623.16,406.54 621.11,409.643 619.07,412.75C618.863,412.703 618.737,412.673 618.69,412.66C618.451,412.619 618.274,412.41 618.274,412.167C618.274,412.124 618.279,412.081 618.29,412.04C619.663,406.573 620.153,401.377 619.76,396.45L625.36,395.46C628.77,395.66 631.91,393.92 634.55,393.5C638.65,392.86 642.777,392.273 646.93,391.74C647.175,391.704 647.409,391.872 647.46,392.12L647.46,392.14C647.523,392.452 647.318,392.77 646.99,392.87L638.27,395.71Z" style="fill:rgb(52,64,63);fill-rule:nonzero;"></path>
            <path d="M836.68,395.8C840.5,398.15 840.48,402.01 841.07,405.82C841.216,406.757 841.25,407.707 841.17,408.65C840.99,410.863 840.873,414.48 840.82,419.5C840.75,424.93 839.61,428.81 837.32,432.79C836.928,433.472 836.297,433.986 835.55,434.23C830.84,435.78 826.43,435.55 819.53,436.13C800.443,437.743 781.823,439.4 763.67,441.1C747.483,442.62 733.71,443.79 722.35,444.61C708.93,445.57 695.147,446.697 681,447.99C679.14,448.16 677.38,448.56 675.67,448.62C669.723,448.827 663.833,449.223 658,449.81C657.273,449.883 655.877,449.757 653.81,449.43C653.843,449.057 654.183,448.63 654.83,448.15C655.111,447.939 655.298,447.626 655.35,447.28L655.86,443.9C656.813,441.9 657.667,439.953 658.42,438.06C659.467,435.413 660.32,433.477 660.98,432.25C664.8,425.13 668.38,418.143 671.72,411.29C672.081,410.543 672.797,410.026 673.62,409.92C686.107,408.333 701.067,406.563 718.5,404.61C719.37,404.52 720.57,404.73 721.48,404.63C733.853,403.217 746.037,401.9 758.03,400.68C758.95,402.64 759.833,404.547 760.68,406.4C761.72,408.66 762.49,410.61 762.99,412.25C763.757,414.763 765.207,418.97 767.34,424.87C767.374,424.974 767.477,425.039 767.58,425.02L767.91,424.98C768.005,424.965 768.072,424.876 768.06,424.78L765.87,409.21C765.756,408.421 766.17,407.642 766.89,407.29L785.48,398.26L836.68,395.8Z" style="fill:rgb(52,64,63);fill-rule:nonzero;"></path>
            <path d="M599.74,436.48L592.96,434.79C596.58,431.697 600.707,429.49 605.34,428.17C605.5,428.123 605.654,428.06 605.8,427.98L610.89,425.07C610.911,425.053 610.938,425.044 610.965,425.044C611.031,425.044 611.086,425.099 611.086,425.165C611.086,425.202 611.069,425.237 611.04,425.26C607.593,429.427 603.827,433.167 599.74,436.48Z" style="fill:rgb(52,64,63);fill-rule:nonzero;"></path>
            <g transform="matrix(0.670847,0,0,0.670847,161.354781,193.711464)">
                <g transform="matrix(144,0,0,144,1029.259832,501.753598)">
                </g>
                <text x="586.183px" y="501.754px" style="font-family:&#39;FiraCodeNFM-Reg&#39;, &#39;FiraCode Nerd Font Mono&#39;, monospace;font-size:144px;">cairn</text>
            </g>
        </g>
        <g transform="matrix(1.0925,0,0,1.0925,-66.62,-30.84875)">
            <path d="M672.09,239.84C673.94,243.37 676.11,247.01 679.78,248.99C681.547,250.11 683.077,250.74 684.37,250.88C689.637,251.46 700.49,252.393 716.93,253.68C721.33,254.02 725.31,253.59 729.2,252.9C738.493,251.247 747.3,249.65 755.62,248.11C757.047,247.843 758.523,247.427 760.05,246.86C760.087,246.847 760.126,246.84 760.166,246.84C760.358,246.84 760.516,246.998 760.516,247.19C760.516,247.275 760.485,247.356 760.43,247.42C755.997,252.2 750.453,254.197 743.8,253.41C743.773,253.406 743.745,253.405 743.718,253.405C743.372,253.405 743.088,253.689 743.088,254.035C743.088,254.246 743.194,254.443 743.37,254.56C743.777,254.833 744.077,255.223 744.27,255.73C742.75,256.89 740.95,256.48 739.53,256.97C731.96,259.55 724.62,260.72 716.9,259.02C716.815,259 716.725,259.004 716.64,259.03C716.333,259.143 716.217,259.353 716.29,259.66L715.7,259.28C715.687,259.173 715.663,259.087 715.63,259.02C715.618,258.977 715.578,258.945 715.53,258.94C705.97,257.967 696.66,256.38 687.6,254.18C687.235,254.097 686.86,254.299 686.73,254.65L686.11,256.34C686.091,256.389 686.086,256.442 686.097,256.492C686.128,256.637 686.277,256.73 686.427,256.698C686.477,256.687 686.523,256.664 686.56,256.63C687.107,256.097 687.79,255.937 688.61,256.15C697.117,258.39 705.76,259.693 714.54,260.06L708.59,266.62C708.533,266.684 708.502,266.767 708.502,266.852C708.502,266.998 708.593,267.129 708.73,267.18C708.817,267.207 708.923,267.227 709.05,267.24C708.89,267.453 708.817,267.59 708.83,267.65C708.869,267.84 709.038,267.977 709.231,267.977C709.317,267.977 709.4,267.95 709.47,267.9L715.73,263.36C715.901,263.235 716.096,263.153 716.3,263.12C719.36,262.607 722.607,262.68 726.04,263.34C726.504,263.424 726.923,263.676 727.22,264.05C728.147,265.237 728.86,266.68 729.36,268.38C730.693,272.9 732.25,277.57 734.03,282.39C734.69,282.863 734.873,283.787 734.58,285.16C734.521,285.444 734.254,285.642 733.96,285.62L708.23,283.2C707.715,283.147 707.212,282.994 706.75,282.75C702.703,280.597 699.173,278.173 696.16,275.48C696.021,275.359 695.844,275.292 695.659,275.292C695.243,275.292 694.899,275.635 694.899,276.052C694.899,276.061 694.9,276.071 694.9,276.08C695.007,278.1 694.39,278.963 693.05,278.67C688.94,277.77 682.88,277.02 677.71,275.52C672.563,274.02 666.443,272.14 659.35,269.88C659.347,269.879 659.345,269.878 659.342,269.877C659.125,269.8 659.011,269.554 659.089,269.332C659.09,269.331 659.19,269.05 659.19,269.05C659.232,268.936 659.351,268.868 659.47,268.89L671.87,271.31C671.977,271.328 672.08,271.256 672.1,271.15L672.16,270.86C672.19,270.691 672.081,270.525 671.91,270.48C665.39,268.72 658.87,266.617 652.35,264.17C650.723,263.557 649.213,262.87 647.82,262.11C647.08,261.71 646.59,260.93 645.86,260.55C645.574,260.402 645.217,260.509 645.06,260.79C644.853,261.163 644.617,261.357 644.35,261.37L645.6,252.4C656.613,252.4 668.153,253.15 680.22,254.65C682.527,254.937 683.897,255.19 684.33,255.41C684.583,255.544 684.896,255.491 685.09,255.28L686.01,254.31C686.064,254.251 686.095,254.174 686.095,254.093C686.095,253.942 685.988,253.811 685.84,253.78L653.64,247.51C653.374,247.457 653.106,247.427 652.84,247.42L648.7,247.34C650.653,245.92 652.823,244.957 655.21,244.45C660.377,243.35 666.003,241.813 672.09,239.84Z" style="fill:rgb(130,137,133);fill-rule:nonzero;"></path>
            <path d="M782.93,287.12L790.92,292.33L768.25,294.04C765.69,292.567 762.94,291.88 760,291.98C755.12,292.147 750.367,292.483 745.74,292.99C743.33,293.25 741.58,293.96 739.54,293.88C739.007,293.86 737.527,293.987 735.1,294.26C724.427,295.44 713.637,296.163 702.73,296.43C698.05,296.54 692.66,298.26 687.48,298.86C683.01,299.37 679.18,300.31 676.47,299.83C670.68,298.81 663.72,296.07 660.08,294.66C658.5,294.05 656.44,293.91 654.63,293.47C655.883,292.23 657.263,291.303 658.77,290.69C658.916,290.637 659.014,290.498 659.014,290.342C659.014,290.168 658.891,290.016 658.72,289.98C657.82,289.773 657.003,289.96 656.27,290.54C655.117,291.46 653.99,291.943 652.89,291.99C649.897,292.13 646.93,292.363 643.99,292.69C644.123,292.223 643.877,291.903 643.25,291.73C638.17,290.263 633.83,288.813 630.23,287.38C627.61,286.333 624.963,285.423 622.29,284.65L624.4,283.13C624.651,282.945 624.94,282.816 625.25,282.75C631.343,281.417 637.41,280.003 643.45,278.51C647.097,277.61 650.873,277.053 654.78,276.84C656.98,276.407 658.72,276.36 660,276.7C670.293,279.48 680.333,281.79 690.12,283.63C699.76,285.443 707.023,286.97 711.91,288.21C715.797,289.197 723.083,290.62 733.77,292.48C734.134,292.546 734.509,292.55 734.88,292.49C742.24,291.323 751.587,289.983 762.92,288.47C767.86,287.81 772.36,287.69 777.36,287.28C777.787,287.24 778.717,287.257 780.15,287.33C781.09,287.377 782.017,287.307 782.93,287.12Z" style="fill:rgb(130,137,133);fill-rule:nonzero;"></path>
            <path d="M758.6,295.19L743.12,302.2C742.016,302.697 741.246,303.736 741.09,304.94L737.76,330.54C737.752,330.61 737.722,330.675 737.675,330.726C737.551,330.858 737.337,330.862 737.201,330.735C737.151,330.688 737.115,330.627 737.1,330.56C736.233,326.24 735.937,321.437 736.21,316.15C736.211,316.139 736.211,316.128 736.211,316.117C736.211,315.881 736.017,315.687 735.781,315.687C735.629,315.687 735.487,315.768 735.41,315.9C733.737,318.56 731.463,321.117 728.59,323.57C727.03,324.897 724.527,326.11 721.08,327.21C710.02,330.73 705.26,331.95 699.33,334.37C699.158,334.443 698.975,334.483 698.79,334.49L678.05,335.08C677.578,335.092 677.148,334.807 676.98,334.37L672.43,322.89L678.64,306.08C678.979,305.166 679.791,304.503 680.76,304.35C687.993,303.243 694.223,302.247 699.45,301.36C706.75,300.12 713.17,299.95 720.8,298.88C727.813,297.887 733.963,297.257 739.25,296.99C746.097,296.65 752.547,296.05 758.6,295.19Z" style="fill:rgb(130,137,133);fill-rule:nonzero;"></path>
            <path d="M667.48,334.21L665.14,337.01C664.877,337.321 664.463,337.454 664.08,337.35L638.5,330.51C638.453,330.017 638.21,329.673 637.77,329.48C634.923,328.22 631.973,327.18 628.92,326.36C630.06,324.787 631.307,323.383 632.66,322.15C633.193,321.663 634.06,320.223 635.26,317.83L642.34,307.44C642.573,307.253 642.79,306.95 642.99,306.53L642.92,307.03C642.919,307.04 642.918,307.05 642.918,307.061C642.918,307.209 643.04,307.331 643.188,307.331C643.265,307.331 643.339,307.298 643.39,307.24C645.757,304.32 648.857,301.55 652.69,298.93C653.81,298.163 654.687,297.78 655.32,297.78C655.598,297.793 655.869,297.858 656.12,297.97L670.11,304.1C670.814,304.406 671.232,305.144 671.13,305.9L667.48,334.21Z" style="fill:rgb(130,137,133);fill-rule:nonzero;"></path>
            <path d="M626.48,333.97C627.907,334.41 629.313,334.73 630.7,334.93C632.907,335.25 634.333,335.487 634.98,335.64C646.067,338.233 656.673,340.89 666.8,343.61C669.29,344.28 672.44,344.59 674.57,345.14C675.377,345.353 675.51,346.103 674.97,347.39C658.637,344.737 642.3,342.013 625.96,339.22C623.58,338.813 621.197,338.42 618.81,338.04C618.083,337.927 617.213,337.94 616.2,338.08C615.307,338.2 614.43,338.23 613.57,338.17C618.123,336.077 622.427,334.677 626.48,333.97Z" style="fill:rgb(130,137,133);fill-rule:nonzero;"></path>
            <path d="M801.24,336.39C800.06,336.903 800.497,337.61 802.55,338.51C802.738,338.59 802.86,338.775 802.86,338.979C802.86,339.195 802.723,339.388 802.52,339.46C797.353,341.42 792.18,343.597 787,345.99C785.367,346.75 784.043,346.987 783.03,346.7C778.837,345.54 774.587,344.847 770.28,344.62C770.274,344.62 770.268,344.62 770.261,344.62C770.031,344.62 769.841,344.809 769.841,345.04C769.841,345.139 769.876,345.234 769.94,345.31L773.03,348.96L752.87,354.57C752.318,354.723 751.749,354.82 751.17,354.86C745.81,355.193 740.263,354.63 734.53,353.17C734.417,353.137 734.303,353.117 734.19,353.11L679.18,347.49C681.387,346.35 683.84,345.753 686.54,345.7C690.333,345.62 692.473,345.553 692.96,345.5C724.873,341.767 758.397,338.65 793.53,336.15C794.563,336.077 795.147,335.697 795.28,335.01L801.24,336.39Z" style="fill:rgb(130,137,133);fill-rule:nonzero;"></path>
            <path d="M821.55,387.34L829.37,390.13C829.37,390.23 829.363,390.317 829.35,390.39C829.326,390.591 829.157,390.748 828.95,390.76C817.677,391.453 809.44,392.34 804.24,393.42C797.333,394.853 791.503,395.703 786.75,395.97C778.357,396.443 760.413,397.58 732.92,399.38C724.09,399.96 713.17,400.22 703.21,400.67C692.31,401.17 680.08,403.36 668.25,403.09C665.31,403.023 663.08,402.81 661.56,402.45C655.493,401.01 647.73,398.763 638.27,395.71L646.99,392.87C647.318,392.77 647.523,392.452 647.46,392.14L647.46,392.12C647.409,391.872 647.175,391.704 646.93,391.74C642.777,392.273 638.65,392.86 634.55,393.5C631.91,393.92 628.77,395.66 625.36,395.46C627.12,394.753 626.39,394.08 623.17,393.44C610.297,390.887 597.493,388.063 584.76,384.97C584.739,384.965 584.718,384.963 584.696,384.963C584.542,384.963 584.416,385.089 584.416,385.243C584.416,385.272 584.421,385.302 584.43,385.33C584.457,385.417 584.553,385.537 584.72,385.69C583.947,385.59 583.117,385.203 582.23,384.53C593.07,381.603 603.97,379.18 614.93,377.26C616.637,377.76 618.32,377.813 619.98,377.42C622.953,376.707 625.547,376.49 627.76,376.77C649.39,379.5 673.94,382.43 693.24,385.36C710.633,388.007 728.303,390.78 746.25,393.68C747.61,393.9 749.737,394.173 752.63,394.5C754.62,394.72 758.19,395.24 761.12,395.01C767.18,394.543 772.113,394.023 775.92,393.45C788.36,391.59 799.6,390.54 813.14,388.46C813.54,388.393 814.953,388.27 817.38,388.09C818.767,387.983 820.157,387.733 821.55,387.34Z" style="fill:rgb(130,137,133);fill-rule:nonzero;"></path>
        </g>
        <g transform="matrix(1.0925,0,0,1.0925,-66.62,-30.84875)">
            <path d="M692.19,151.52L716.91,151.41L717.36,151.6C717.544,151.679 717.743,151.717 717.94,151.71L725.34,151.49C728.12,151.537 730.937,151.53 733.79,151.47C737.977,151.39 740.737,151.697 742.07,152.39C744.617,153.71 746.397,155.86 747.41,158.84C748.19,161.13 747.82,163.96 747.89,166.64C747.89,166.643 747.89,166.647 747.89,166.65C747.89,166.968 747.628,167.23 747.31,167.23C747.31,167.23 661.31,167.23 661.31,167.23C660.937,167.23 660.626,166.928 660.61,166.55C660.49,164.18 660.47,160.96 661.35,158.62C663.17,153.773 666.967,151.387 672.74,151.46C677.253,151.513 680.863,151.65 683.57,151.87L692.19,151.52Z" style="fill:rgb(196,69,61);fill-rule:nonzero;"></path>
            <path d="M737.2,239.67C736.567,239.597 736.207,239.777 736.12,240.21C734.09,250.04 725.55,249.15 717.5,249.07C709.44,248.99 699.233,249.103 686.88,249.41C686.441,249.423 685.999,249.39 685.56,249.31C683.62,248.963 681.693,248.857 679.78,248.99C676.11,247.01 673.94,243.37 672.09,239.84L666.63,172.63C666.628,172.61 666.628,172.59 666.628,172.57C666.628,172.137 666.984,171.78 667.418,171.78C667.418,171.78 667.419,171.78 667.42,171.78L741.74,171.78C741.748,171.78 741.757,171.78 741.765,171.781C742.017,171.793 742.214,172.006 742.202,172.252C742.202,172.262 742.201,172.271 742.2,172.28C739.747,199.54 737.73,221.78 736.15,239C736.11,239.46 736.46,239.683 737.2,239.67ZM708.613,183.625C708.605,181.299 706.684,179.392 704.359,179.4L704.139,179.401C701.813,179.409 699.905,181.329 699.913,183.655L700.087,233.355C700.095,235.681 702.016,237.588 704.341,237.58L704.562,237.579C706.887,237.571 708.795,235.651 708.787,233.325L708.613,183.625ZM686.492,183.373C686.359,181.311 684.626,179.687 682.56,179.687C682.476,179.687 682.391,179.69 682.306,179.695L682.146,179.705C680.085,179.839 678.461,181.572 678.461,183.637C678.461,183.722 678.463,183.807 678.469,183.891L681.688,233.667C681.821,235.729 683.554,237.353 685.62,237.353C685.704,237.353 685.789,237.35 685.874,237.345L686.034,237.335C688.095,237.201 689.719,235.468 689.719,233.403C689.719,233.318 689.717,233.233 689.711,233.149L686.492,183.373ZM730.672,184.254C730.84,182.077 729.186,180.148 727.009,179.98L726.87,179.97C724.693,179.802 722.764,181.455 722.596,183.632L718.788,233.126C718.62,235.303 720.274,237.232 722.451,237.4L722.59,237.411C724.767,237.578 726.696,235.925 726.864,233.748L730.672,184.254Z" style="fill:rgb(196,69,61);fill-rule:nonzero;"></path>
        </g>
        <g transform="matrix(1.0925,0,0,1.0925,-66.62,-30.84875)">
            <path d="M649.75,276.06L654.78,276.84C650.873,277.053 647.097,277.61 643.45,278.51C637.41,280.003 631.343,281.417 625.25,282.75C624.94,282.816 624.651,282.945 624.4,283.13L622.29,284.65C621.677,284.223 621.03,284.043 620.35,284.11C620.078,284.134 619.867,284.365 619.867,284.638C619.867,284.822 619.963,284.994 620.12,285.09C621.29,285.83 622.43,285.53 623.82,286.18C630.047,289.047 636.127,291.38 642.06,293.18C642.633,293.353 643.163,293.3 643.65,293.02L641.72,307.22C641.718,307.234 641.717,307.247 641.717,307.261C641.717,307.431 641.857,307.571 642.027,307.571C642.055,307.571 642.083,307.567 642.11,307.56C642.19,307.533 642.267,307.493 642.34,307.44L635.26,317.83C634.353,317.543 633.267,317.873 632,318.82C631.493,319.2 630.507,319.807 629.04,320.64C627.38,321.587 626.28,323.197 625.74,325.47L612.32,320.89C611.96,320.768 611.657,320.515 611.47,320.18C608.34,314.6 611.31,309.78 612.09,303.93C612.86,298.26 615.2,292.11 617.01,286.23C617.477,284.71 618.783,283.66 620.93,283.08C630.483,280.52 640.09,278.18 649.75,276.06Z" style="fill:rgb(87,102,101);fill-rule:nonzero;"></path>
            <path d="M674.24,348.9C675.13,350.83 674.06,353.33 673.82,355.38C673.817,355.401 673.816,355.422 673.817,355.442C673.825,355.645 674.003,355.805 674.212,355.797C674.231,355.796 674.251,355.794 674.27,355.79C674.357,355.77 674.437,355.737 674.51,355.69C674.563,355.837 674.6,355.93 674.62,355.97C674.663,356.126 674.805,356.235 674.967,356.235C675.09,356.235 675.204,356.173 675.27,356.07L679.64,349.06C679.759,348.874 679.987,348.782 680.21,348.83C691.67,351.443 703.437,353.323 715.51,354.47C717.563,354.67 719.08,354.74 720.06,354.68L721.17,354.64C721.176,354.64 721.181,354.64 721.187,354.64C721.351,354.64 721.487,354.775 721.487,354.94C721.487,355.014 721.459,355.085 721.41,355.14C721.083,355.527 720.977,355.887 721.09,356.22C721.139,356.367 721.1,356.53 720.99,356.64L713.02,364.61C712.967,364.669 712.938,364.745 712.938,364.824C712.938,365 713.082,365.144 713.258,365.144C713.3,365.144 713.341,365.136 713.38,365.12L714.74,364.47C714.76,364.603 714.863,364.683 715.05,364.71C715.19,364.73 715.327,364.707 715.46,364.64C719.153,362.733 722.733,361.047 726.2,359.58C727.89,358.87 729.2,357.32 731.25,357.46C735.27,357.733 740.6,358.853 747.24,360.82C747.599,360.924 747.922,361.133 748.17,361.42C750.96,364.62 752.33,370.67 753.38,375.33C753.807,377.243 754.73,379.767 756.15,382.9C756.93,384.36 757.217,385.967 757.01,387.72C756.959,388.125 756.581,388.418 756.17,388.37C738.75,386.123 722.697,384 708.01,382C706.617,381.807 705.27,381.48 703.97,381.02C696.57,378.387 689.543,374.76 682.89,370.14C681.93,369.467 681.077,369.053 680.33,368.9C680.294,368.892 680.256,368.888 680.219,368.888C679.939,368.888 679.709,369.118 679.709,369.398C679.709,369.475 679.726,369.551 679.76,369.62L682.86,376C682.886,376.052 682.905,376.107 682.917,376.163C682.996,376.539 682.747,376.914 682.366,376.995C682.312,377.006 682.256,377.011 682.2,377.01C679.387,376.91 673.383,376.36 664.19,375.36C659.023,374.793 653.09,373.727 646.39,372.16C637.25,370.027 630.557,368.38 626.31,367.22C626.252,367.202 626.2,367.166 626.162,367.118C626.065,366.992 626.085,366.811 626.206,366.717C626.255,366.679 626.317,366.659 626.38,366.66C634.1,366.6 641.603,367.01 648.89,367.89C649.103,367.917 649.321,367.92 649.54,367.9C651.033,367.727 651.813,367.637 651.88,367.63L651.87,367.63C648.663,366.93 645.31,366.31 641.81,365.77C630.4,364.02 617.66,360.57 609.01,358.33C608.677,358.243 608.4,358.013 608.18,357.64C607.98,357.3 607.78,357.12 607.58,357.1C607.32,357.08 607.09,357.223 606.89,357.53C606.477,353.47 606.877,349.563 608.09,345.81C614.19,345.62 620.25,345.26 626.3,345.59C633.96,346.003 641.613,346.57 649.26,347.29C656.2,347.94 665.91,348.1 674.24,348.9Z" style="fill:rgb(87,102,101);fill-rule:nonzero;"></path>
            <path d="M582.23,384.53C583.117,385.203 583.947,385.59 584.72,385.69L619.76,396.45C620.153,401.377 619.663,406.573 618.29,412.04C618.279,412.081 618.274,412.124 618.274,412.167C618.274,412.41 618.451,412.619 618.69,412.66C618.737,412.673 618.863,412.703 619.07,412.75C619.07,412.95 619.09,413.077 619.13,413.13C619.37,413.403 619.61,413.397 619.85,413.11C621.97,410.53 624.84,407.48 628,405.63C629.14,404.957 631.063,403.63 633.77,401.65C634.137,401.385 634.601,401.3 635.03,401.42L659.66,408.27C660.372,408.471 660.836,409.166 660.75,409.9C659.75,418.233 658.443,426.44 656.83,434.52C656.23,437.527 655.907,440.653 655.86,443.9L655.35,447.28C655.298,447.626 655.111,447.939 654.83,448.15C654.183,448.63 653.843,449.057 653.81,449.43C652.603,449.457 651.27,449.287 649.81,448.92C642.843,447.133 635.84,445.513 628.8,444.06C623.8,443.027 618.943,441.827 614.23,440.46C609.343,439.04 604.513,437.713 599.74,436.48C603.827,433.167 607.593,429.427 611.04,425.26C611.069,425.237 611.086,425.202 611.086,425.165C611.086,425.099 611.031,425.044 610.965,425.044C610.938,425.044 610.911,425.053 610.89,425.07L605.8,427.98C605.654,428.06 605.5,428.123 605.34,428.17C600.707,429.49 596.58,431.697 592.96,434.79C588.593,433.923 582.633,432.363 575.08,430.11C570.37,428.7 567,425.89 568.89,420.42C571.06,414.16 572.08,409.48 574.17,404.12C576.077,399.233 578.02,393.467 580,386.82C580.42,385.42 581.163,384.657 582.23,384.53Z" style="fill:rgb(87,102,101);fill-rule:nonzero;"></path>
            <path d="M785.48,398.26L766.89,407.29C766.17,407.642 765.756,408.421 765.87,409.21L768.06,424.78C768.072,424.876 768.005,424.965 767.91,424.98L767.58,425.02C767.477,425.039 767.374,424.974 767.34,424.87C765.207,418.97 763.757,414.763 762.99,412.25C762.49,410.61 761.72,408.66 760.68,406.4C759.833,404.547 758.95,402.64 758.03,400.68L785.48,398.26Z" style="fill:rgb(87,102,101);fill-rule:nonzero;"></path>
        </g>
        <g transform="matrix(1.0925,0,0,1.0925,-66.62,-30.84875)">
            <path d="M725.34,151.49L717.94,151.71C717.743,151.717 717.544,151.679 717.36,151.6L716.91,151.41C716.863,149.763 716.53,148.193 715.91,146.7C715.781,146.403 715.551,146.162 715.26,146.02C714.453,145.633 713.45,145.437 712.25,145.43C706.023,145.403 700.367,145.423 695.28,145.49C694.315,145.503 693.446,146.085 693.07,146.97C692.597,148.097 692.303,149.613 692.19,151.52L683.57,151.87C683.72,146.93 685.52,141.47 689.88,139.33C692,138.283 695.35,137.857 699.93,138.05C701.037,138.097 705.24,138.1 712.54,138.06C721.8,138.01 724.3,143.28 725.34,151.49Z" style="fill:rgb(130,15,25);fill-rule:nonzero;"></path>
            <path d="M708.787,233.325C708.795,235.651 706.887,237.571 704.561,237.579L704.341,237.58C702.016,237.588 700.095,235.681 700.087,233.355L699.913,183.655C699.905,181.329 701.813,179.409 704.139,179.401L704.359,179.4C706.684,179.392 708.605,181.299 708.613,183.625L708.787,233.325Z" style="fill:rgb(130,15,25);fill-rule:nonzero;"></path>
            <path d="M689.711,233.149C689.717,233.233 689.719,233.318 689.719,233.403C689.719,235.468 688.095,237.201 686.034,237.335L685.874,237.345C685.789,237.35 685.704,237.353 685.62,237.353C683.554,237.353 681.821,235.729 681.688,233.667L678.469,183.891C678.463,183.807 678.461,183.722 678.461,183.637C678.461,181.572 680.085,179.839 682.146,179.705L682.306,179.695C682.391,179.69 682.476,179.687 682.56,179.687C684.626,179.687 686.359,181.311 686.492,183.373L689.711,233.149Z" style="fill:rgb(130,15,25);fill-rule:nonzero;"></path>
            <path d="M726.864,233.748C726.696,235.925 724.767,237.578 722.59,237.411L722.451,237.4C720.274,237.232 718.62,235.303 718.788,233.126L722.596,183.632C722.764,181.455 724.693,179.802 726.87,179.97L727.009,179.98C729.186,180.148 730.84,182.077 730.672,184.254L726.864,233.748Z" style="fill:rgb(130,15,25);fill-rule:nonzero;"></path>
        </g>
        <g transform="matrix(1.0925,0,0,1.0925,-66.62,-30.84875)">
            <path d="M648.7,247.34L652.84,247.42C653.106,247.427 653.374,247.457 653.64,247.51L685.84,253.78C685.988,253.811 686.095,253.942 686.095,254.093C686.095,254.174 686.064,254.251 686.01,254.31L685.09,255.28C684.896,255.491 684.583,255.544 684.33,255.41C683.897,255.19 682.527,254.937 680.22,254.65C668.153,253.15 656.613,252.4 645.6,252.4C646.127,250.213 647.16,248.527 648.7,247.34Z" style="fill:rgb(201,207,200);fill-rule:nonzero;"></path>
            <path d="M715.7,259.28L714.54,260.06C705.76,259.693 697.117,258.39 688.61,256.15C687.79,255.937 687.107,256.097 686.56,256.63C686.523,256.664 686.477,256.687 686.427,256.698C686.277,256.73 686.128,256.637 686.097,256.492C686.086,256.442 686.091,256.389 686.11,256.34L686.73,254.65C686.86,254.299 687.235,254.097 687.6,254.18C696.66,256.38 705.97,257.967 715.53,258.94C715.578,258.945 715.618,258.977 715.63,259.02C715.663,259.087 715.687,259.173 715.7,259.28Z" style="fill:rgb(201,207,200);fill-rule:nonzero;"></path>
            <path d="M744.27,255.73C746.437,257.057 748.32,258.707 749.92,260.68C750.033,260.815 750.024,261.018 749.9,261.15L749.7,261.34C749.666,261.375 749.619,261.396 749.57,261.396C749.521,261.396 749.474,261.375 749.44,261.34C746.38,258.167 742.987,257.617 739.26,259.69C735.34,261.86 732.35,263.83 732.94,268.46C733.493,272.8 733.857,277.443 734.03,282.39C732.25,277.57 730.693,272.9 729.36,268.38C728.86,266.68 728.147,265.237 727.22,264.05C726.923,263.676 726.504,263.424 726.04,263.34C722.607,262.68 719.36,262.607 716.3,263.12C716.096,263.153 715.901,263.235 715.73,263.36L709.47,267.9C709.4,267.95 709.317,267.977 709.231,267.977C709.038,267.977 708.869,267.84 708.83,267.65C708.817,267.59 708.89,267.453 709.05,267.24C711.943,265.107 714.357,262.58 716.29,259.66C716.217,259.353 716.333,259.143 716.64,259.03C716.725,259.004 716.815,259 716.9,259.02C724.62,260.72 731.96,259.55 739.53,256.97C740.95,256.48 742.75,256.89 744.27,255.73Z" style="fill:rgb(201,207,200);fill-rule:nonzero;"></path>
            <path d="M622.29,284.65C624.963,285.423 627.61,286.333 630.23,287.38C633.83,288.813 638.17,290.263 643.25,291.73C643.877,291.903 644.123,292.223 643.99,292.69C644.003,292.817 643.89,292.927 643.65,293.02C643.163,293.3 642.633,293.353 642.06,293.18C636.127,291.38 630.047,289.047 623.82,286.18C622.43,285.53 621.29,285.83 620.12,285.09C619.963,284.994 619.867,284.822 619.867,284.638C619.867,284.365 620.078,284.134 620.35,284.11C621.03,284.043 621.677,284.223 622.29,284.65Z" style="fill:rgb(201,207,200);fill-rule:nonzero;"></path>
            <path d="M768.25,294.04L758.6,295.19C752.547,296.05 746.097,296.65 739.25,296.99C733.963,297.257 727.813,297.887 720.8,298.88C713.17,299.95 706.75,300.12 699.45,301.36C694.223,302.247 687.993,303.243 680.76,304.35C679.791,304.503 678.979,305.166 678.64,306.08L672.43,322.89C671.677,327.083 670.027,330.857 667.48,334.21L671.13,305.9C671.232,305.144 670.814,304.406 670.11,304.1L656.12,297.97C655.869,297.858 655.598,297.793 655.32,297.78C654.687,297.78 653.81,298.163 652.69,298.93C648.857,301.55 645.757,304.32 643.39,307.24C643.339,307.298 643.265,307.331 643.188,307.331C643.04,307.331 642.918,307.209 642.918,307.061C642.918,307.05 642.919,307.04 642.92,307.03L642.99,306.53C644.45,303.777 645.987,301.057 647.6,298.37C649.26,295.61 651.603,293.977 654.63,293.47C656.44,293.91 658.5,294.05 660.08,294.66C663.72,296.07 670.68,298.81 676.47,299.83C679.18,300.31 683.01,299.37 687.48,298.86C692.66,298.26 698.05,296.54 702.73,296.43C713.637,296.163 724.427,295.44 735.1,294.26C737.527,293.987 739.007,293.86 739.54,293.88C741.58,293.96 743.33,293.25 745.74,292.99C750.367,292.483 755.12,292.147 760,291.98C762.94,291.88 765.69,292.567 768.25,294.04Z" style="fill:rgb(201,207,200);fill-rule:nonzero;"></path>
            <path d="M674.97,347.39C675.21,348.23 674.967,348.733 674.24,348.9C665.91,348.1 656.2,347.94 649.26,347.29C641.613,346.57 633.96,346.003 626.3,345.59C620.25,345.26 614.19,345.62 608.09,345.81C608.81,341.423 610.637,338.877 613.57,338.17C614.43,338.23 615.307,338.2 616.2,338.08C617.213,337.94 618.083,337.927 618.81,338.04C621.197,338.42 623.58,338.813 625.96,339.22C642.3,342.013 658.637,344.737 674.97,347.39Z" style="fill:rgb(201,207,200);fill-rule:nonzero;"></path>
            <path d="M679.18,347.49L734.19,353.11C734.303,353.117 734.417,353.137 734.53,353.17C740.263,354.63 745.81,355.193 751.17,354.86C751.749,354.82 752.318,354.723 752.87,354.57L773.03,348.96C776.877,351.173 780.327,353.89 783.38,357.11C783.506,357.244 783.506,357.456 783.38,357.59L783.34,357.63C783.217,357.756 783.017,357.765 782.89,357.65C779.977,355.043 776.523,353.443 772.53,352.85C772.049,352.784 771.561,352.825 771.1,352.97C768.02,353.97 764.23,355.6 760.54,356.32C758.21,356.78 756.06,357.76 755.12,359.92C754.982,360.229 754.92,360.565 754.94,360.9L756.15,382.9C754.73,379.767 753.807,377.243 753.38,375.33C752.33,370.67 750.96,364.62 748.17,361.42C747.922,361.133 747.599,360.924 747.24,360.82C740.6,358.853 735.27,357.733 731.25,357.46C729.2,357.32 727.89,358.87 726.2,359.58C722.733,361.047 719.153,362.733 715.46,364.64C715.327,364.707 715.19,364.73 715.05,364.71C714.863,364.683 714.76,364.603 714.74,364.47C717.913,361.343 720.503,358.61 722.51,356.27C723.063,355.623 723.48,354.813 723.76,353.84C723.766,353.814 723.768,353.788 723.764,353.761C723.749,353.653 723.651,353.575 723.548,353.59C723.52,353.593 723.493,353.604 723.47,353.62C722.337,354.333 721.2,354.687 720.06,354.68C719.08,354.74 717.563,354.67 715.51,354.47C703.437,353.323 691.67,351.443 680.21,348.83C679.987,348.782 679.759,348.874 679.64,349.06L675.27,356.07C675.204,356.173 675.09,356.235 674.967,356.235C674.805,356.235 674.663,356.126 674.62,355.97C674.6,355.93 674.563,355.837 674.51,355.69L679.18,347.49Z" style="fill:rgb(201,207,200);fill-rule:nonzero;"></path>
            <path d="M625.36,395.46L619.76,396.45L584.72,385.69C584.553,385.537 584.457,385.417 584.43,385.33C584.421,385.302 584.416,385.272 584.416,385.243C584.416,385.089 584.542,384.963 584.696,384.963C584.718,384.963 584.739,384.965 584.76,384.97C597.493,388.063 610.297,390.887 623.17,393.44C626.39,394.08 627.12,394.753 625.36,395.46Z" style="fill:rgb(201,207,200);fill-rule:nonzero;"></path>
            <path d="M836.68,395.8L785.48,398.26L758.03,400.68C746.037,401.9 733.853,403.217 721.48,404.63C720.57,404.73 719.37,404.52 718.5,404.61C701.067,406.563 686.107,408.333 673.62,409.92C672.797,410.026 672.081,410.543 671.72,411.29C668.38,418.143 664.8,425.13 660.98,432.25C660.32,433.477 659.467,435.413 658.42,438.06C657.667,439.953 656.813,441.9 655.86,443.9C655.907,440.653 656.23,437.527 656.83,434.52C658.443,426.44 659.75,418.233 660.75,409.9C660.836,409.166 660.372,408.471 659.66,408.27L635.03,401.42C634.601,401.3 634.137,401.385 633.77,401.65C631.063,403.63 629.14,404.957 628,405.63C624.84,407.48 621.97,410.53 619.85,413.11C619.61,413.397 619.37,413.403 619.13,413.13C619.09,413.077 619.07,412.95 619.07,412.75C621.11,409.643 623.16,406.54 625.22,403.44C626.74,401.16 628.22,399.9 629.7,398.01C630.02,397.599 630.45,397.286 630.94,397.11C633.327,396.243 635.77,395.777 638.27,395.71C647.73,398.763 655.493,401.01 661.56,402.45C663.08,402.81 665.31,403.023 668.25,403.09C680.08,403.36 692.31,401.17 703.21,400.67C713.17,400.22 724.09,399.96 732.92,399.38C760.413,397.58 778.357,396.443 786.75,395.97C791.503,395.703 797.333,394.853 804.24,393.42C809.44,392.34 817.677,391.453 828.95,390.76C829.157,390.748 829.326,390.591 829.35,390.39C829.363,390.317 829.37,390.23 829.37,390.13C832.137,391.17 834.573,393.06 836.68,395.8Z" style="fill:rgb(201,207,200);fill-rule:nonzero;"></path>
        </g>
    </g>
</svg>