<?xml version="1.0" encoding="UTF-8" standalone="no"?>
<!DOCTYPE svg PUBLIC "-//W3C//DTD SVG 1.1//EN" "http://www.w3.org/Graphics/SVG/1.1/DTD/svg11.dtd">
<svg width="100%" height="100%" viewBox="261 152 314 314" version="1.1" xmlns="http://www.w3.org/2000/svg" xmlns:xlink="http://www.w3.org/1999/xlink" xml:space="preserve" xmlns:serif="http://www.serif.com/" style="fill-rule:evenodd;clip-rule:evenodd;stroke-linejoin:round;stroke-miterlimit:2;">
    <g id="stones" transform="matrix(1,0,0,1,-286.833333,16)">
        <path d="M672.07,241.43C672.577,242.117 673.107,242.93 673.66,243.87C675.82,247.54 678.77,249.15 683.23,249.31C689.977,249.55 695.073,249.7 698.52,249.76C705.26,249.88 713.22,249.43 720.5,249.83C722.06,249.917 724.103,249.807 726.63,249.5C728.917,249.22 730.773,248.47 732.2,247.25C734.1,245.63 735.44,243.403 736.22,240.57C739.293,241.097 742.293,241.603 745.22,242.09C750.433,242.963 755.01,244.323 758.95,246.17C759.213,246.293 759.383,246.559 759.383,246.85C759.383,247.03 759.318,247.204 759.2,247.34C759.127,247.42 759.003,247.49 758.83,247.55C750.41,250.21 743.717,252.367 738.75,254.02C730.383,256.793 725.053,258.4 722.76,258.84C716.26,260.08 710.61,258.97 704.05,257.93C690.21,255.74 684.14,255.06 672.19,252.58C668.41,251.793 661.283,250.58 650.81,248.94C650.727,248.928 650.647,248.901 650.574,248.859C650.261,248.677 650.155,248.266 650.339,247.948C650.381,247.876 650.435,247.812 650.5,247.76C651.74,246.76 653.193,246.043 654.86,245.61C660.54,244.137 666.277,242.743 672.07,241.43ZM722.93,284.49C722.568,284.364 722.329,284.019 722.34,283.64C722.387,281.033 722.41,279.673 722.41,279.56C722.22,275.62 721.21,272.03 721.36,268.14C721.5,264.68 723.72,263.82 726.9,262.92C739.46,259.353 751.227,255.56 762.2,251.54C762.953,251.257 763.811,251.521 764.28,252.18C764.493,252.493 764.703,253.043 764.91,253.83C766.423,259.717 767.357,263.53 767.71,265.27C769.58,274.35 764.41,276.7 756.89,278.63C746.923,281.19 736.217,283.233 724.77,284.76C724.23,284.827 723.617,284.737 722.93,284.49ZM646.87,252.95C649.65,253.663 652.167,254.207 654.42,254.58C663.94,256.15 680.05,259.21 693.24,261.2C703.14,262.69 710.06,263.48 714.65,265.15C715.291,265.384 715.758,265.951 715.87,266.63C716.77,272.123 717.41,276.493 717.79,279.74C718.03,281.75 717.48,284.59 714.88,284.24C711.067,283.72 707.13,283.017 703.07,282.13C688.157,278.883 670.987,275.163 651.56,270.97C649.56,270.54 648.7,268.65 647.75,266.49C645.897,262.27 645.36,257.917 646.14,253.43L646.144,253.408C646.213,253.086 646.531,252.877 646.847,252.945L646.87,252.95ZM715.9,289.88C716.029,289.916 716.118,290.035 716.118,290.169C716.118,290.306 716.024,290.427 715.89,290.46C696.23,294.127 685.187,296.147 682.76,296.52C672.52,298.09 666.45,295.97 654.39,292.3C644.143,289.173 635.037,286.537 627.07,284.39C626.84,284.328 626.678,284.117 626.678,283.878C626.678,283.792 626.699,283.706 626.74,283.63C626.967,283.19 627.443,282.86 628.17,282.64C634.78,280.65 644.53,279.02 651.5,277.93C653.88,277.557 657.083,277.783 661.11,278.61C685.69,283.637 703.953,287.393 715.9,289.88ZM675.144,304.41C676.209,302.907 679.516,301.75 680.26,301.55C689.77,298.99 704.75,297.7 716.5,294.33C724.55,292.02 730.36,290.13 737.47,288.75C744.09,287.47 751.44,285.817 759.52,283.79C761.108,283.388 762.759,283.337 764.36,283.64C770.233,284.747 776.123,286.42 782.03,288.66C786.743,290.453 789.81,293.44 791.23,297.62C793.703,304.893 793.243,311.617 789.85,317.79C787.4,322.25 782.24,323.4 777,323.99C757.27,326.24 717.4,331.17 687.53,333.8C685.157,334.007 683.01,333.733 681.09,332.98C676.26,331.1 674.345,322.16 674.15,317.55C673.963,313.137 674.078,305.913 675.144,304.41ZM671.03,305.43C671.886,312.192 667.955,315.127 674.6,333.63C674.835,334.283 674.87,334.42 674.174,334.42L674.17,334.42C666.063,334.23 619.095,323.161 612.783,317.488C608.881,313.981 615.708,289.273 621.29,288.87C625.485,288.568 625.295,289.269 667.77,301.56C668.39,301.74 670.804,302.843 671.03,305.43ZM710.55,336.8C711.317,336.453 712.507,336.203 714.12,336.05C718.973,335.603 734.687,333.947 761.26,331.08C765.447,330.627 768.96,330.607 771.8,331.02C778.34,331.973 784.46,333.277 790.16,334.93C790.443,335.006 790.64,335.265 790.64,335.557C790.64,335.858 790.432,336.121 790.14,336.19C779.4,338.89 770.62,341.15 760.89,343.32C757.65,344.04 752.69,343.837 746.01,342.71C736.657,341.13 724.86,339.32 710.62,337.28C710.493,337.267 710.395,337.159 710.395,337.031C710.395,336.93 710.456,336.838 710.55,336.8ZM757.36,382.7C757.01,383.05 756.53,383.235 756.04,383.21C751.367,382.97 747.603,382.71 744.75,382.43C703.843,378.483 662.95,374.227 622.07,369.66C619.89,369.42 617.587,368.7 615.16,367.5C614.73,367.288 614.344,367.004 614.02,366.66C606.4,358.55 604.85,348.21 613.84,340.34C615.007,339.32 617.7,338.183 621.92,336.93C630.36,334.42 637.76,331.75 645.52,333.72C646.733,334.027 652.24,335.41 662.04,337.87C669.15,339.66 676.37,340.24 682.26,339.65C687.273,339.157 692.183,339.283 696.99,340.03C711.923,342.343 727.487,344.783 743.68,347.35C749.45,348.27 754.53,349.8 757.23,355.5C760.57,362.53 763.86,376.25 757.36,382.7ZM764.3,383.18C764.276,383.176 764.251,383.171 764.227,383.164C763.836,383.059 763.601,382.645 763.708,382.247C763.715,382.225 763.722,382.202 763.73,382.18C767.93,371.3 765.02,362.2 761.14,351.87C760.413,349.937 760.95,348.737 762.75,348.27C781.257,343.463 791.833,340.693 794.48,339.96C797.133,339.227 799.67,339.207 802.09,339.9C803.119,340.201 803.945,340.974 804.31,341.98C805.377,344.933 807.98,351.98 812.12,363.12C812.987,365.46 813.313,367.717 813.1,369.89C812.77,373.25 804.18,375.14 800.56,376.06C793.807,377.767 783.36,380.08 769.22,383C767.4,383.38 765.76,383.44 764.3,383.18ZM823.05,390.09C823.093,390.124 823.118,390.176 823.118,390.231C823.118,390.322 823.05,390.399 822.96,390.41C766.233,394.65 720.837,397.93 686.77,400.25C684.91,400.377 677.747,400.83 665.28,401.61C662.793,401.77 658.773,401.33 653.22,400.29C649.253,399.55 644.43,398.45 638.75,396.99C630.17,394.783 614.89,390.913 592.91,385.38C592.705,385.334 592.559,385.151 592.559,384.941C592.559,384.754 592.675,384.586 592.85,384.52C595.177,383.573 597.253,382.933 599.08,382.6C609.293,380.713 619.263,378.83 628.99,376.95C631.457,376.47 634.983,376.453 639.57,376.9C686.39,381.42 722.907,385.183 749.12,388.19C758.393,389.25 766.44,389.033 773.26,387.54C783.46,385.313 791.427,383.53 797.16,382.19C798.046,381.987 798.971,382.007 799.85,382.25C809.157,384.823 816.277,387.087 821.21,389.04C821.737,389.247 822.35,389.597 823.05,390.09ZM651.09,447.66C651.067,447.895 650.868,448.076 650.632,448.076C650.58,448.076 650.529,448.067 650.48,448.05C650.193,447.95 646.7,447.173 640,445.72C637.08,445.087 633.59,444.21 629.53,443.09C609.783,437.623 599.233,434.68 597.88,434.26C594,433.053 590.423,432.08 587.15,431.34C582.58,430.3 571.08,428.58 569.88,423.51C569.407,421.483 569.433,419.783 569.96,418.41C574.027,407.843 576.74,400.787 578.1,397.24C579.46,393.68 581.86,390.31 585.52,389.19C586.44,388.91 588.567,389.203 591.9,390.07C616.067,396.363 634.647,401.137 647.64,404.39C651.35,405.32 655.71,406.78 653.55,411.76C649.28,421.62 645.32,431.6 649.68,442.49C650.713,445.057 651.183,446.78 651.09,447.66ZM838.86,421.86C837.85,429.41 834.32,433.39 826.69,434.14C810.557,435.727 787.99,437.727 758.99,440.14C728.957,442.633 698.293,445.327 667,448.22C665.267,448.38 663.137,448.083 660.61,447.33C655.05,445.67 652.86,438.82 652.8,433.73C652.71,425.75 656.63,411.78 664.47,408.21C667.137,406.997 670.647,406.237 675,405.93C730.753,402.043 779.36,398.59 820.82,395.57C824.44,395.303 827.2,395.353 829.1,395.72C836.05,397.05 840.05,401.09 839.89,408.5C839.797,412.973 839.453,417.427 838.86,421.86Z" style="fill:rgb(130,140,139);"/>
        <path d="M722.683,285.198L722.676,285.196C722.011,284.961 721.573,284.323 721.59,283.625C721.635,281.118 721.658,279.768 721.659,279.564C721.464,275.615 720.46,272.013 720.611,268.11C720.767,264.253 723.152,263.201 726.695,262.199C739.236,258.637 750.985,254.85 761.936,250.838C763.006,250.436 764.224,250.809 764.9,251.758C765.144,252.116 765.399,252.74 765.636,253.643C767.155,259.549 768.091,263.375 768.445,265.119C769.245,269.003 768.795,271.731 767.507,273.744C765.613,276.703 761.806,278.143 757.077,279.356C747.083,281.923 736.347,283.973 724.862,285.504C724.223,285.583 723.495,285.489 722.683,285.198ZM723.184,283.784C723.741,283.984 724.237,284.07 724.676,284.016C736.089,282.494 746.765,280.456 756.704,277.904C760.998,276.801 764.523,275.623 766.243,272.935C767.364,271.184 767.671,268.801 766.975,265.419C766.623,263.685 765.692,259.885 764.184,254.019C764.009,253.352 763.846,252.879 763.662,252.605C763.388,252.23 762.896,252.08 762.458,252.244C751.468,256.27 739.684,260.069 727.104,263.642C724.288,264.439 722.234,265.106 722.109,268.17C721.96,272.037 722.97,275.606 723.159,279.524L723.16,279.56C723.16,279.674 723.137,281.038 723.09,283.662C723.088,283.716 723.125,283.764 723.184,283.784ZM646.14,254.18L645.404,253.286L645.408,253.265L646.144,254.158C646.144,254.158 646.153,254.158 646.168,254.156C646.269,254.149 646.67,254.097 646.832,253.714C646.797,253.705 646.724,253.686 646.722,253.686L646.608,253.783L646.144,254.158L645.411,253.25L645.494,252.992L645.623,252.762L645.791,252.564L645.99,252.404L646.217,252.283L646.466,252.208L646.732,252.182L647.004,252.211L646.86,253.569L646.727,253.682C646.729,253.681 646.731,253.681 646.733,253.681C646.782,253.679 646.828,253.655 646.855,253.616L646.85,253.666C646.85,253.665 646.85,253.665 646.851,253.664L646.856,253.615C646.866,253.6 646.874,253.583 646.878,253.565L646.861,253.579L646.861,253.573L646.879,253.558C646.879,253.556 646.88,253.554 646.88,253.552L646.862,253.567L647.02,252.215L647.042,252.22L646.87,253.7L647.056,252.224C649.813,252.931 652.308,253.47 654.542,253.84C664.06,255.41 680.165,258.469 693.352,260.458C703.319,261.959 710.285,262.764 714.907,264.445C715.801,264.771 716.454,265.561 716.61,266.509C717.512,272.016 718.154,276.398 718.535,279.651C718.67,280.788 718.568,282.157 718.078,283.195C717.512,284.396 716.482,285.212 714.779,284.983C710.946,284.461 706.99,283.754 702.91,282.863C687.998,279.616 670.828,275.896 651.402,271.703C650.212,271.447 649.351,270.77 648.656,269.822C648.043,268.986 647.562,267.926 647.063,266.792C645.149,262.433 644.595,257.936 645.401,253.302L646.14,254.18ZM646.86,253.569L646.862,253.567L646.861,253.573L646.86,253.575L646.86,253.569ZM646.852,253.719C646.138,258.001 646.666,262.158 648.437,266.188C648.888,267.214 649.312,268.179 649.866,268.935C650.339,269.58 650.908,270.063 651.718,270.237C671.145,274.43 688.316,278.15 703.23,281.397C707.27,282.279 711.186,282.979 714.98,283.497C715.878,283.618 716.423,283.189 716.722,282.555C717.097,281.758 717.15,280.702 717.045,279.827C716.666,276.589 716.028,272.231 715.13,266.752C715.062,266.341 714.781,265.996 714.393,265.855C709.835,264.196 702.96,263.421 693.128,261.942C679.935,259.951 663.82,256.89 654.297,255.32C652.07,254.951 649.589,254.417 646.852,253.719ZM646.69,253.678L646.724,253.681L646.684,253.676L646.69,253.678ZM646.716,253.696L646.168,254.156L646.608,253.783L646.716,253.696ZM646.859,253.58L646.733,253.681L646.86,253.575L646.859,253.58ZM646.859,253.58L646.861,253.579L646.856,253.615C646.856,253.615 646.856,253.616 646.855,253.616L646.859,253.58ZM646.83,253.695L646.839,253.696L646.831,253.695C646.834,253.695 646.837,253.695 646.839,253.695C646.84,253.695 646.84,253.694 646.84,253.694L646.732,253.683L646.729,253.685C646.776,253.693 646.811,253.695 646.83,253.695ZM646.83,253.695L646.732,253.683L646.831,253.695C646.831,253.695 646.83,253.695 646.83,253.695ZM674.174,335.17L674.152,335.17C668.453,335.036 643.624,329.561 627.068,324.326C619.862,322.047 614.213,319.781 612.281,318.045C611.474,317.32 610.988,315.831 610.899,313.832C610.717,309.697 612.062,303.222 614.057,297.846C615.209,294.742 616.579,292.005 617.981,290.272C619.051,288.948 620.183,288.198 621.236,288.122C622.984,287.996 624.002,288.028 627.424,288.942C632.355,290.259 642.484,293.462 667.978,300.84C668.702,301.049 671.504,302.34 671.776,305.35C672.038,307.434 671.864,309.166 671.669,311.082C671.232,315.367 670.721,320.612 675.306,333.376C675.417,333.687 675.483,333.915 675.497,334.076L675.489,334.344L675.427,334.561L675.257,334.825L675.03,335.005C674.875,335.094 674.608,335.17 674.174,335.17ZM673.812,333.655C669.182,320.681 669.729,315.315 670.177,310.93C670.361,309.124 670.535,307.491 670.286,305.524L670.283,305.495C670.095,303.342 668.078,302.43 667.562,302.28C642.086,294.909 631.964,291.707 627.037,290.391C623.887,289.55 622.953,289.502 621.344,289.618C620.611,289.671 619.892,290.293 619.147,291.215C617.825,292.85 616.549,295.441 615.463,298.368C613.542,303.548 612.222,309.782 612.398,313.765C612.463,315.247 612.686,316.392 613.284,316.93C615.14,318.598 620.596,320.707 627.52,322.896C643.592,327.977 667.521,333.312 673.812,333.655ZM710.265,336.106C711.084,335.741 712.344,335.465 714.051,335.303C718.903,334.857 734.613,333.2 761.179,330.334C765.441,329.873 769.017,329.857 771.908,330.278C778.484,331.236 784.638,332.547 790.356,334.206L790.576,334.286L790.775,334.398L791.102,334.707L791.314,335.102L791.371,335.325L791.39,335.557L791.37,335.796L791.31,336.024L791.215,336.235L791.088,336.426L790.931,336.593L790.748,336.735L790.54,336.845L790.323,336.917C779.576,339.619 770.79,341.881 761.053,344.052C757.75,344.786 752.694,344.598 745.885,343.45C736.544,341.872 724.764,340.064 710.545,338.027L710.188,337.92L709.904,337.702L709.715,337.397L709.645,337.031L709.689,336.737L709.814,336.475L710.01,336.259L710.265,336.106ZM789.949,335.65C789.95,335.65 789.95,335.65 789.951,335.65C789.95,335.65 789.95,335.65 789.949,335.65ZM713.259,336.902C726.379,338.795 737.337,340.484 746.135,341.97C752.686,343.075 757.55,343.294 760.727,342.588C770.341,340.444 779.027,338.211 789.606,335.551C784.036,333.954 778.064,332.691 771.692,331.762C768.903,331.356 765.452,331.38 761.34,331.826C734.764,334.693 719.047,336.35 714.19,336.797C713.861,336.828 713.551,336.863 713.259,336.902ZM764.179,383.92L764.169,383.918L764.032,383.888L763.748,383.779L763.5,383.62L763.292,383.419C763.23,383.346 763.175,383.268 763.128,383.185C762.94,382.853 762.877,382.448 762.984,382.052C762.997,382.007 763.011,381.962 763.03,381.91C767.157,371.22 764.25,362.283 760.438,352.134C759.987,350.934 759.98,349.959 760.313,349.214C760.662,348.433 761.391,347.848 762.561,347.544C781.061,342.739 791.634,339.97 794.28,339.237C797.075,338.465 799.747,338.449 802.3,339.18C803.559,339.548 804.568,340.494 805.015,341.725C806.082,344.678 808.684,351.722 812.823,362.86C813.733,365.315 814.07,367.683 813.846,369.963C813.728,371.166 812.79,372.266 811.323,373.169C808.398,374.972 803.331,376.13 800.744,376.787C793.984,378.496 783.526,380.812 769.373,383.734C767.452,384.135 765.721,384.193 764.179,383.92ZM764.432,382.442C765.808,382.687 767.352,382.624 769.068,382.265C783.194,379.348 793.63,377.038 800.375,375.333C802.515,374.789 806.418,373.907 809.267,372.57C810.158,372.151 810.942,371.692 811.515,371.176C811.979,370.759 812.304,370.319 812.354,369.817C812.556,367.75 812.241,365.605 811.417,363.381C807.276,352.239 804.672,345.191 803.605,342.236C803.321,341.455 802.68,340.854 801.881,340.62C799.591,339.965 797.19,339.989 794.68,340.683C792.033,341.416 781.452,344.187 762.938,348.996C762.309,349.159 761.87,349.407 761.682,349.826C761.478,350.282 761.566,350.872 761.842,351.606C765.789,362.114 768.701,371.375 764.432,382.442ZM592.585,383.818C594.96,382.853 597.08,382.203 598.944,381.862C609.155,379.976 619.123,378.093 628.847,376.214C631.364,375.724 634.962,375.698 639.642,376.153C686.468,380.674 722.989,384.438 749.205,387.445C758.384,388.494 766.349,388.285 773.1,386.807C783.295,384.582 791.259,382.799 796.992,381.459C797.999,381.228 799.05,381.251 800.05,381.527C809.39,384.11 816.535,386.382 821.484,388.342C822.055,388.566 822.723,388.942 823.482,389.477L823.515,389.501L823.664,389.65L823.775,389.826L823.845,390.022L823.868,390.231L823.806,390.567L823.634,390.848L823.376,391.052L823.05,391.155L823.016,391.158C766.287,395.398 720.889,398.678 686.821,400.998C684.961,401.125 677.796,401.578 665.328,402.358C662.803,402.521 658.721,402.083 653.082,401.027C649.102,400.285 644.262,399.181 638.563,397.716C629.984,395.51 614.705,391.64 592.745,386.112L592.367,385.955L592.072,385.69L591.879,385.344L591.809,384.941L591.865,384.579L592.022,384.259L592.267,383.998L592.585,383.818ZM593.105,384.656C593.101,384.655 593.097,384.654 593.093,384.653C593.097,384.654 593.101,384.655 593.105,384.656ZM593.985,384.877C615.489,390.291 630.473,394.087 638.937,396.264C644.597,397.719 649.404,398.815 653.358,399.553C658.826,400.577 662.783,401.019 665.233,400.861C677.697,400.082 684.859,399.628 686.719,399.502C720.419,397.207 765.207,393.973 821.082,389.799C821.032,389.777 820.983,389.756 820.934,389.737C816.018,387.791 808.924,385.537 799.65,382.973C798.891,382.763 798.093,382.745 797.328,382.921C791.593,384.261 783.623,386.045 773.42,388.273C766.531,389.781 758.403,390.006 749.035,388.935C722.824,385.929 686.312,382.166 639.497,377.646C635.004,377.209 631.55,377.216 629.132,377.686C619.404,379.567 609.432,381.45 599.215,383.338C597.657,383.622 595.914,384.136 593.985,384.877ZM672.673,240.985C673.194,241.69 673.738,242.524 674.306,243.49C676.325,246.919 679.089,248.411 683.257,248.56C689.997,248.8 695.089,248.95 698.533,249.01C705.282,249.13 713.252,248.681 720.542,249.081C722.068,249.166 724.067,249.056 726.539,248.756C728.661,248.496 730.389,247.812 731.713,246.679C733.506,245.151 734.761,243.044 735.497,240.371L736.347,239.831C739.419,240.357 742.418,240.864 745.344,241.35C750.631,242.236 755.272,243.618 759.267,245.49C759.794,245.737 760.133,246.268 760.133,246.85C760.133,247.21 760.003,247.558 759.767,247.83L759.753,247.847C759.616,247.996 759.398,248.147 759.075,248.259L759.056,248.265C750.641,250.924 743.951,253.079 738.986,254.732C730.57,257.521 725.208,259.134 722.901,259.577C716.311,260.834 710.583,259.725 703.933,258.671C690.077,256.478 684.001,255.797 672.037,253.314C668.264,252.529 661.149,251.318 650.706,249.683L650.443,249.62L650.198,249.507L649.965,249.338L649.776,249.131L649.636,248.896L649.544,248.642L649.501,248.375L649.51,248.103L649.572,247.832L649.69,247.572L649.841,247.359L650.029,247.176C651.35,246.111 652.896,245.346 654.672,244.884C660.359,243.409 666.103,242.014 671.904,240.699L672.673,240.985ZM651.115,248.229C661.503,249.856 668.579,251.062 672.342,251.846C684.279,254.323 690.343,255.002 704.167,257.189C710.637,258.215 716.209,259.326 722.619,258.103C724.899,257.666 730.197,256.065 738.514,253.308C743.48,251.655 750.172,249.499 758.601,246.835C754.724,245.022 750.222,243.688 745.096,242.83C742.378,242.378 739.596,241.908 736.751,241.422C735.905,244.105 734.546,246.235 732.687,247.82C731.158,249.128 729.172,249.944 726.72,250.245C724.139,250.558 722.052,250.667 720.459,250.579C713.188,250.179 705.238,250.63 698.507,250.51C695.057,250.45 689.956,250.3 683.203,250.06C678.451,249.889 675.315,248.161 673.014,244.25C672.578,243.51 672.157,242.85 671.751,242.272C666.13,243.551 660.563,244.906 655.049,246.336C653.554,246.725 652.241,247.355 651.115,248.229ZM716.104,289.158L716.415,289.305L716.656,289.535L716.812,289.83L716.868,290.169L716.809,290.516L716.645,290.816L716.393,291.048L716.069,291.188L716.028,291.197C696.354,294.867 685.302,296.888 682.874,297.261C672.515,298.85 666.371,296.73 654.171,293.017C643.933,289.893 634.835,287.259 626.874,285.114L626.491,284.938L626.192,284.656L625.998,284.295L625.928,283.878L625.966,283.569L626.077,283.279C626.381,282.695 626.987,282.215 627.954,281.922C634.592,279.923 644.384,278.284 651.384,277.189C653.83,276.805 657.123,277.026 661.26,277.875C685.841,282.902 704.106,286.659 716.053,289.146L716.104,289.158ZM627.404,283.978C627.404,283.979 627.403,283.98 627.403,283.981C627.403,283.98 627.404,283.979 627.404,283.978ZM627.582,283.751C635.48,285.884 644.489,288.495 654.609,291.583C666.529,295.21 672.525,297.33 682.646,295.779C684.977,295.42 695.257,293.542 713.489,290.145C701.548,287.664 684.038,284.064 660.959,279.345C657.044,278.541 653.93,278.308 651.616,278.671C644.676,279.756 634.968,281.377 628.387,283.358C628.042,283.462 627.767,283.582 627.582,283.751ZM674.532,303.976C675.014,303.296 675.888,302.662 676.834,302.152C678.154,301.439 679.596,300.952 680.065,300.826C689.572,298.267 704.547,296.978 716.293,293.609C724.368,291.292 730.196,289.398 737.328,288.014C743.936,286.736 751.272,285.086 759.336,283.063C761.03,282.634 762.792,282.58 764.499,282.903C770.415,284.018 776.347,285.703 782.297,287.959C787.244,289.841 790.45,292.991 791.94,297.379C794.487,304.87 794.002,311.793 790.507,318.151C787.94,322.825 782.575,324.117 777.085,324.735C757.351,326.986 717.472,331.917 687.595,334.547C685.097,334.765 682.839,334.471 680.818,333.679C678.725,332.864 677.104,330.856 675.938,328.384C674.28,324.866 673.521,320.424 673.401,317.582C673.268,314.454 673.288,309.932 673.68,306.978C673.868,305.566 674.171,304.486 674.532,303.976ZM675.755,304.844C675.477,305.236 675.312,306.087 675.167,307.176C674.785,310.057 674.77,314.467 674.899,317.518C675.013,320.208 675.726,324.415 677.295,327.744C678.281,329.836 679.591,331.592 681.364,332.282C683.183,332.995 685.217,333.249 687.465,333.053C717.328,330.423 757.189,325.494 776.916,323.245C781.905,322.683 786.86,321.675 789.193,317.429C792.485,311.44 792.919,304.917 790.52,297.861C789.17,293.889 786.242,291.065 781.764,289.361C775.899,287.137 770.052,285.476 764.221,284.377C762.727,284.094 761.185,284.142 759.702,284.517C751.608,286.548 744.244,288.204 737.613,289.486C730.524,290.862 724.732,292.748 716.707,295.051C704.953,298.422 689.968,299.713 680.455,302.274C680.032,302.388 678.735,302.83 677.547,303.472C676.82,303.864 676.126,304.321 675.755,304.844ZM757.89,383.23C757.39,383.731 756.702,383.995 756.001,383.959C751.314,383.718 747.54,383.457 744.678,383.177C703.767,379.229 662.87,374.972 621.988,370.405C619.73,370.157 617.342,369.416 614.828,368.173C614.318,367.921 613.859,367.583 613.473,367.174C608.729,362.124 606.29,356.227 607.082,350.565C607.614,346.768 609.593,343.061 613.346,339.775C614.555,338.718 617.333,337.51 621.706,336.211C630.286,333.659 637.816,330.99 645.704,332.993C646.917,333.3 652.423,334.683 662.223,337.143C669.243,338.91 676.37,339.486 682.187,338.904C687.264,338.404 692.237,338.533 697.105,339.289C712.039,341.602 727.603,344.042 743.798,346.609C749.822,347.57 755.089,349.228 757.908,355.179C759.952,359.481 761.973,366.241 761.834,372.381C761.739,376.597 760.621,380.519 757.89,383.23ZM756.832,382.168C759.299,379.719 760.248,376.155 760.334,372.347C760.467,366.448 758.516,359.955 756.552,355.821C753.971,350.372 749.078,348.97 743.562,348.091C727.37,345.524 711.808,343.084 696.875,340.771C692.13,340.034 687.283,339.909 682.335,340.396C676.37,340.994 669.057,340.41 661.857,338.597C652.057,336.137 646.55,334.754 645.335,334.447C637.704,332.51 630.434,335.181 622.134,337.649C618.067,338.857 615.458,339.922 614.334,340.905C610.895,343.915 609.055,347.294 608.568,350.773C607.833,356.023 610.167,361.463 614.566,366.146C614.829,366.425 615.143,366.655 615.492,366.828C617.832,367.984 620.051,368.683 622.153,368.915C663.03,373.481 703.919,377.737 744.823,381.684C747.668,381.963 751.42,382.222 756.079,382.461C756.358,382.476 756.631,382.369 756.832,382.168ZM651.837,447.732L651.793,447.957L651.71,448.166L651.592,448.351L651.445,448.511L651.272,448.642L651.076,448.741L650.861,448.804L650.632,448.826L650.233,448.758C649.949,448.659 646.484,447.894 639.841,446.453C636.91,445.817 633.406,444.937 629.33,443.813C609.569,438.342 599.012,435.397 597.657,434.976C593.798,433.776 590.24,432.808 586.984,432.071C584.213,431.441 578.922,430.556 574.87,428.848C571.941,427.613 569.676,425.905 569.15,423.681C568.636,421.479 568.688,419.633 569.26,418.141C573.327,407.574 576.04,400.518 577.399,396.972C578.841,393.199 581.421,389.66 585.302,388.472C586.279,388.175 588.547,388.423 592.089,389.344C616.253,395.637 634.83,400.41 647.822,403.663C649.458,404.073 651.211,404.592 652.53,405.431C653.516,406.058 654.27,406.864 654.634,407.898C655.016,408.981 654.984,410.339 654.238,412.058C650.047,421.736 646.097,431.523 650.376,442.21C651.476,444.942 651.933,446.791 651.837,447.732ZM650.345,447.576C650.344,447.578 650.344,447.579 650.344,447.581C650.344,447.579 650.344,447.578 650.345,447.576ZM650.724,447.341C650.726,447.341 650.727,447.342 650.728,447.342C650.727,447.342 650.726,447.341 650.724,447.341ZM650.351,447.243C650.305,446.356 649.83,444.87 648.984,442.769C644.543,431.677 648.513,421.504 652.862,411.462C653.412,410.192 653.502,409.197 653.22,408.397C652.895,407.475 652.094,406.849 651.128,406.358C650.025,405.799 648.702,405.43 647.458,405.118C634.463,401.864 615.881,397.09 591.711,390.796C589.761,390.289 588.235,389.98 587.132,389.876C586.508,389.817 586.043,389.815 585.739,389.907C582.299,390.96 580.079,394.161 578.8,397.509C577.44,401.055 574.727,408.112 570.66,418.679C570.179,419.933 570.178,421.487 570.61,423.338C571.045,425.172 573.035,426.447 575.453,427.466C579.42,429.138 584.603,429.991 587.316,430.609C590.607,431.353 594.202,432.331 598.102,433.544C599.455,433.963 609.997,436.904 629.73,442.367C633.774,443.483 637.25,444.356 640.159,444.987C645.852,446.222 649.249,446.976 650.351,447.243ZM839.603,421.959C839.073,425.922 837.857,428.937 835.797,431.071C833.725,433.217 830.791,434.491 826.763,434.886C810.627,436.473 788.057,438.474 759.052,440.887C729.021,443.381 698.36,446.074 667.069,448.967C665.259,449.134 663.034,448.835 660.395,448.049C657.996,447.332 656.17,445.73 654.848,443.701C652.933,440.762 652.088,436.922 652.05,433.738C651.995,428.855 653.41,421.77 656.28,416.098C658.239,412.227 660.884,409.019 664.159,407.527C666.892,406.284 670.487,405.496 674.948,405.182C730.7,401.295 779.306,397.842 820.765,394.822C824.471,394.549 827.296,394.608 829.242,394.983C832.903,395.684 835.777,397.119 837.724,399.335C839.684,401.563 840.725,404.589 840.64,408.516C840.546,413.017 840.2,417.498 839.603,421.959ZM838.117,421.761C838.706,417.355 839.047,412.93 839.14,408.484C839.215,405 838.336,402.302 836.598,400.325C834.849,398.336 832.247,397.086 828.958,396.456C827.103,396.098 824.409,396.058 820.874,396.318C779.414,399.338 730.807,402.791 675.053,406.678C670.807,406.977 667.382,407.709 664.781,408.893C661.784,410.257 659.411,413.233 657.619,416.776C654.861,422.225 653.497,429.029 653.55,433.721C653.579,436.165 654.116,439.032 655.316,441.487C656.474,443.854 658.25,445.843 660.824,446.611C663.24,447.331 665.274,447.626 666.931,447.473C698.227,444.58 728.892,441.886 758.928,439.393C787.923,436.98 810.486,434.98 826.617,433.394C830.219,433.039 832.865,431.948 834.718,430.029C836.583,428.098 837.637,425.348 838.117,421.761Z" style="fill:rgb(130,140,139);"/>
    </g>
</svg>
