<?xml version="1.0" encoding="UTF-8" standalone="no"?>
<!DOCTYPE svg PUBLIC "-//W3C//DTD SVG 1.1//EN" "http://www.w3.org/Graphics/SVG/1.1/DTD/svg11.dtd">
<svg width="100%" height="100%" viewBox="261 152 314 314" version="1.1" xmlns="http://www.w3.org/2000/svg" xmlns:xlink="http://www.w3.org/1999/xlink" xml:space="preserve" xmlns:serif="http://www.serif.com/" style="fill-rule:evenodd;clip-rule:evenodd;stroke-linejoin:round;stroke-miterlimit:2;">
    <g id="cap" transform="matrix(1,0,0,1,-286.833333,16)">
        <path d="M704.01,137.66C706.943,137.653 709.44,137.653 711.5,137.66C718.947,137.673 723.19,141.3 724.23,148.54C724.323,149.187 724.48,150.107 724.7,151.3C724.752,151.577 724.993,151.779 725.27,151.78C729.39,151.793 732.727,151.757 735.28,151.67C744.31,151.34 748.86,158.51 747.8,166.89C747.765,167.161 747.533,167.367 747.26,167.37C729.06,167.5 718.34,167.56 704.05,167.57C689.76,167.59 679.04,167.55 660.83,167.46C660.56,167.458 660.329,167.257 660.29,166.99C659.21,158.61 663.75,151.43 672.78,151.74C675.333,151.82 678.67,151.85 682.79,151.83C683.067,151.829 683.308,151.627 683.36,151.35C683.573,150.157 683.727,149.237 683.82,148.59C684.847,141.343 689.083,137.707 696.53,137.68C698.583,137.667 701.077,137.66 704.01,137.66ZM692.09,151.73L716.29,151.81C716.592,151.81 716.84,151.562 716.84,151.26L716.84,150.35C716.846,147.534 714.622,145.211 711.91,145.2L696.51,145.14C696.509,145.14 696.509,145.14 696.508,145.14C693.792,145.131 691.55,147.443 691.54,150.263C691.54,150.265 691.54,150.268 691.54,150.27L691.54,151.18C691.54,151.482 691.788,151.73 692.09,151.73Z" style="fill:rgb(182,62,56);fill-rule:nonzero;"/>
        <path d="M736.22,240.57C735.44,243.403 734.1,245.63 732.2,247.25C730.773,248.47 728.917,249.22 726.63,249.5C724.103,249.807 722.06,249.917 720.5,249.83C713.22,249.43 705.26,249.88 698.52,249.76C695.073,249.7 689.977,249.55 683.23,249.31C678.77,249.15 675.82,247.54 673.66,243.87C673.107,242.93 672.577,242.117 672.07,241.43L665.82,171.76C665.819,171.751 665.818,171.742 665.818,171.733C665.805,171.47 666.006,171.243 666.264,171.231C666.273,171.23 666.281,171.23 666.29,171.23L741,171.23C741.695,171.233 742.265,171.805 742.265,172.5C742.265,172.537 742.263,172.573 742.26,172.61L736.22,240.57Z" style="fill:rgb(182,62,56);fill-rule:nonzero;"/>
    </g>
</svg>
